HIERARCHY
ROOT RootJoint
{
    OFFSET   0.000000   0.000000   0.000000
    CHANNELS 6 Xposition Yposition Zposition Xrotation Yrotation Zrotation
    JOINT pelvis_lowerback
    {
        OFFSET   0.000000   0.093605   0.000000
        CHANNELS 3 Xrotation Yrotation Zrotation
        JOINT lowerback_torso
        {
            OFFSET   0.000000   0.100000   0.000000
            CHANNELS 3 Xrotation Yrotation Zrotation
            JOINT torso_head
            {
                OFFSET   0.000000   0.282350   0.000000
                CHANNELS 3 Xrotation Yrotation Zrotation
                End Site
                {
                    OFFSET   0.000000   0.192650   0.000000
                }
            }
            JOINT rTorso_Clavicle
            {
                OFFSET  -0.001000   0.157500   0.000000
                CHANNELS 3 Xrotation Yrotation Zrotation
                JOINT rShoulder
                {
                    OFFSET  -0.117647   0.000000   0.000000
                    CHANNELS 3 Xrotation Yrotation Zrotation
                    JOINT rElbow
                    {
                        OFFSET  -0.245000   0.000000   0.000000
                        CHANNELS 3 Xrotation Yrotation Zrotation
                        JOINT rWrist
                        {
                            OFFSET  -0.240000   0.000000   0.000000
                            CHANNELS 3 Xrotation Yrotation Zrotation
                            End Site
                            {
                                OFFSET  -0.116353  -0.002500   0.000000
                            }
                        }
                    }
                }
            }
            JOINT lTorso_Clavicle
            {
                OFFSET   0.001000   0.157500   0.000000
                CHANNELS 3 Xrotation Yrotation Zrotation
                JOINT lShoulder
                {
                    OFFSET   0.117647   0.000000   0.000000
                    CHANNELS 3 Xrotation Yrotation Zrotation
                    JOINT lElbow
                    {
                        OFFSET   0.245000   0.000000   0.000000
                        CHANNELS 3 Xrotation Yrotation Zrotation
                        JOINT lWrist
                        {
                            OFFSET   0.240000   0.000000   0.000000
                            CHANNELS 3 Xrotation Yrotation Zrotation
                            End Site
                            {
                                OFFSET   0.116353  -0.002500   0.000000
                            }
                        }
                    }
                }
            }
        }
    }
    JOINT rHip
    {
        OFFSET  -0.100000  -0.051395   0.000000
        CHANNELS 3 Xrotation Yrotation Zrotation
        JOINT rKnee
        {
            OFFSET   0.000000  -0.410000   0.000000
            CHANNELS 3 Xrotation Yrotation Zrotation
            JOINT rAnkle
            {
                OFFSET   0.000000  -0.390000   0.000000
                CHANNELS 3 Xrotation Yrotation Zrotation
                JOINT rToeJoint
                {
                    OFFSET   0.000000  -0.050000   0.130000
                    CHANNELS 3 Xrotation Yrotation Zrotation
                    End Site
                    {
                        OFFSET  -0.010000   0.002000   0.060000
                    }
                }
            }
        }
    }
    JOINT lHip
    {
        OFFSET   0.100000  -0.051395   0.000000
        CHANNELS 3 Xrotation Yrotation Zrotation
        JOINT lKnee
        {
            OFFSET   0.000000  -0.410000   0.000000
            CHANNELS 3 Xrotation Yrotation Zrotation
            JOINT lAnkle
            {
                OFFSET   0.000000  -0.390000   0.000000
                CHANNELS 3 Xrotation Yrotation Zrotation
                JOINT lToeJoint
                {
                    OFFSET   0.000000  -0.050000   0.130000
                    CHANNELS 3 Xrotation Yrotation Zrotation
                    End Site
                    {
                        OFFSET   0.010000   0.002000   0.060000
                    }
                }
            }
        }
    }
}
MOTION
Frames: 15
Frame Time:   0.008333
 -2.210928   0.847389   5.601657   5.817290   6.266721   2.825428   8.764318  -0.649938  -1.663751   0.784850  -2.393292   0.185475  -9.555348  -2.211336   1.396392   5.758871  -5.445453   8.689634  21.038487   7.504112  45.786747  -0.022408  30.596032  -0.022720   3.115824   4.309415   0.892824   3.568181   4.094331  -6.939352   8.352217  -2.958046 -42.563064  -0.114988 -62.855603  -0.087872   1.773008  -6.437796   3.198652 -35.681880  -2.322814  -8.377220  99.152483  -0.008345   0.002382   4.424565  -4.884641   5.634126  -4.156630  -0.001301  -0.000594 -15.786677  -3.989316  -1.919500  47.451248  -0.001175  -0.005828 -28.937692  -1.598071   5.599344 -14.429085  -0.006363   0.007850
 -2.211460   0.851658   5.621262   5.775486   6.710016   2.571292   8.611462  -1.062823  -1.321515   0.652296  -2.668060   0.383932  -9.450276  -1.982017   1.176391   6.179872  -5.983453   8.445029  22.119006   7.120970  45.916570  -0.022385  29.676047  -0.018885   3.131118   4.057619   0.917774   3.373042   3.868344  -6.726044   7.370323  -3.375515 -42.699372  -0.126723 -65.207247  -0.097290   1.772748  -6.053528   3.358110 -37.451075  -2.370538  -8.090085  96.378866  -0.012997  -0.007781   4.134838  -5.320034   5.729368  -4.015838  -0.001375   0.000022 -14.045459  -4.341679  -1.451125  46.303096  -0.000813  -0.007539 -26.952483  -1.688030   5.008958 -18.248697  -0.023250   0.003228
 -2.212140   0.856732   5.641179   5.837749   7.079587   2.281912   8.350745  -1.444561  -0.974671   0.493482  -2.923395   0.590733  -9.340806  -1.762900   0.965700   6.620542  -6.542189   8.160455  23.168141   6.739449  46.062505  -0.021774  28.827690  -0.016343   3.150971   3.915637   1.039126   3.216300   3.689035  -6.489902   6.468241  -3.787893 -42.878406  -0.136006 -67.491482  -0.104828   1.784762  -6.121226   3.367467 -39.100851  -2.411859  -7.801029  92.982532  -0.016754  -0.017026   3.832948  -5.728233   5.814205  -3.892086  -0.001498   0.000491 -12.296426  -4.617962  -0.911994  44.939024  -0.000300  -0.009322 -24.449544  -1.759287   4.528299 -22.686479  -0.035738  -0.002426
 -2.213017   0.862003   5.661250   5.962975   7.422330   1.950337   8.047659  -1.824013  -0.617338   0.315727  -3.182000   0.806240  -9.241630  -1.558582   0.771580   7.056957  -7.099233   7.845671  24.172409   6.360443  46.195615  -0.020613  28.033466  -0.014689   3.169980   3.795335   1.179004   3.072858   3.531396  -6.221647   5.625550  -4.171403 -43.042319  -0.143468 -69.646613  -0.110246   1.803319  -6.360873   3.355241 -40.687248  -2.459533  -7.522945  89.551060  -0.019203  -0.023703   3.539905  -6.108638   5.893139  -3.788361  -0.001555   0.000786 -10.558529  -4.860952  -0.302289  43.463445   0.000443  -0.010952 -21.614098  -1.825837   4.140012 -27.520702  -0.043115  -0.008402
 -2.214087   0.867163   5.681409   6.116735   7.729351   1.582153   7.740776  -2.193845  -0.256084   0.136104  -3.437675   1.028318  -9.151544  -1.368577   0.592710   7.477984  -7.641052   7.512420  25.125946   5.989181  46.310341  -0.019119  27.288254  -0.013537   3.187798   3.669708   1.301764   2.933881   3.388806  -5.924331   4.832437  -4.523988 -43.179661  -0.149068 -71.668807  -0.113789   1.826319  -6.660633   3.373258 -42.224086  -2.505136  -7.257359  86.281174  -0.020472  -0.027634   3.262705  -6.463310   5.967107  -3.703745  -0.001537   0.000932  -8.857324  -5.120376   0.366808  41.922967   0.001913  -0.011670 -18.576132  -1.927895   3.837308 -32.529975  -0.046673  -0.009732
 -2.215341   0.872036   5.701631   6.281389   8.024851   1.180573   7.445021  -2.558689   0.107518  -0.035192  -3.691901   1.256196  -9.068036  -1.192321   0.427674   7.881115  -8.163892   7.173078  26.028604   5.628654  46.409995  -0.017489  26.588487  -0.012609   3.204549   3.532224   1.401296   2.796745   3.256905  -5.607756   4.084164  -4.848860 -43.292450  -0.153043 -73.562928  -0.116208   1.852694  -6.983487   3.427292 -43.709472  -2.551078  -7.014035  83.226692  -0.021407  -0.029534   3.002841  -6.793967   6.036784  -3.636582  -0.001447   0.000973  -7.202595  -5.363960   1.088126  40.382103   0.003424  -0.012006 -15.412335  -2.029699   3.585144 -37.474118  -0.047503  -0.010869
 -2.216758   0.876585   5.721931   6.444853   8.317805   0.763098   7.167660  -2.915861   0.459696  -0.193571  -3.942731   1.482840  -8.989880  -1.028763   0.274956   8.265099  -8.665751   6.842857  26.880727   5.282263  46.501191  -0.015868  25.931164  -0.011757   3.220662   3.380653   1.482907   2.662923   3.134328  -5.285979   3.379527  -5.148358 -43.386414  -0.155680 -75.333963  -0.118223   1.881310  -7.309935   3.509263 -45.135686  -2.588644  -6.805476  80.388504  -0.022310  -0.030087   2.760009  -7.102598   6.102165  -3.584061  -0.001310   0.000949  -5.604987  -5.580924   1.838772  38.918098   0.004679  -0.012049 -12.347833  -2.126350   3.366640 -41.273357  -0.044422  -0.011860
 -2.217904   0.881113   5.742383   6.605190   8.653376   0.523194   6.817082  -3.237808   0.714505  -0.300883  -4.231649   1.641325  -8.803754  -0.942119   0.039920   8.724035  -9.127259   6.669605  27.649766   4.798848  46.609497  -0.014457  25.474749  -0.010526   3.214179   3.138532   1.416887   2.624691   3.012588  -4.946469   3.101895  -5.660231 -43.457893  -0.130483 -77.103447  -0.091458   1.986850  -7.595217   3.774558 -46.088779  -2.562996  -6.746237  76.708296  -0.024953  -0.033013   2.229383  -7.361203   6.027459  -3.450508  -0.001394   0.001334  -4.429630  -5.546381   2.414637  38.121822   0.003882  -0.012531  -9.062488  -2.325474   2.851111 -42.982836  -0.041576  -0.017040
 -2.218826   0.885400   5.762984   6.767613   8.879736   0.408288   6.439674  -3.501762   0.905768  -0.397037  -4.480498   1.751314  -8.624061  -0.862361  -0.192964   9.167923  -9.581169   6.530821  28.378241   4.344704  46.740172  -0.013512  25.050182  -0.009349   3.206039   2.926321   1.367425   2.650590   2.936915  -4.648189   2.896662  -6.128454 -43.552835  -0.103915 -78.760870  -0.064957   2.092378  -7.912107   3.840339 -46.801100  -2.508367  -6.716593  72.786296  -0.023419  -0.034839   1.722921  -7.603007   5.953643  -3.329939  -0.001564   0.001557  -3.402233  -5.470664   2.841902  37.518566   0.003430  -0.011800  -5.670993  -2.593684   2.366452 -43.744468  -0.036255  -0.016521
 -2.219586   0.889343   5.783661   6.946772   8.988135   0.369824   6.050918  -3.717316   1.069254  -0.496976  -4.683140   1.837231  -8.459265  -0.787835  -0.413136   9.588125 -10.013898   6.408337  29.063101   3.920914  46.876495  -0.012839  24.654237  -0.008247   3.198024   2.731768   1.341729   2.710602   2.900838  -4.385893   2.735248  -6.547825 -43.656899  -0.077297 -80.303853  -0.039169   2.190592  -8.205966   3.832298 -47.377797  -2.470297  -6.672554  68.807326  -0.017373  -0.034402   1.248113  -7.827498   5.883772  -3.212741  -0.001829   0.001664  -2.471437  -5.389014   3.168500  36.991149   0.003293  -0.010490  -2.213670  -2.916464   1.911435 -43.895814  -0.029598  -0.013823
 -2.220218   0.892883   5.804353   7.145666   8.994870   0.384176   5.664087  -3.895566   1.221810  -0.600931  -4.847148   1.914305  -8.308685  -0.718596  -0.618749   9.980339 -10.419228   6.296676  29.702846   3.527894  47.011218  -0.012335  24.286025  -0.007198   3.190011   2.554788   1.327321   2.788602   2.891749  -4.149065   2.602945  -6.925271 -43.761506  -0.049527 -81.739986  -0.012452   2.282160  -8.466910   3.800536 -47.863798  -2.460895  -6.602073  64.826330  -0.008407  -0.031539   0.804661  -8.035432   5.818531  -3.101749  -0.002126   0.001664  -1.622515  -5.308599   3.417296  36.504369   0.003342  -0.008943   1.287265  -3.285366   1.488354 -43.572131  -0.021949  -0.010869
 -2.220741   0.895938   5.825018   7.367655   8.917483   0.430915   5.284852  -4.044622   1.378102  -0.706570  -4.980181   1.993681  -8.170129  -0.654444  -0.809686  10.344349 -10.795898   6.191277  30.298919   3.164292  47.140747  -0.011929  23.944382  -0.006197   3.181949   2.397830   1.317558   2.874591   2.900455  -3.928456   2.490356  -7.267730 -43.861933  -0.018823 -83.078509   0.017246   2.368399  -8.702566   3.763166 -48.285804  -2.480701  -6.498464  60.859162   0.001737  -0.026552   0.390959  -8.228004   5.757928  -2.998320  -0.002400   0.001582  -0.837896  -5.234285   3.603164  36.054313   0.003458  -0.007312   4.637658  -3.670989   1.128059 -42.352846  -0.011390  -0.008633
 -2.221175   0.898399   5.845651   7.597881   8.789424   0.508744   4.926019  -4.177685   1.536794  -0.806639  -5.094210   2.079263  -8.041129  -0.595357  -0.986373  10.682897 -11.146789   6.091988  30.854792   2.827765  47.266158  -0.011574  23.627539  -0.005240   3.173868   2.260775   1.312869   2.960606   2.918897  -3.714941   2.390059  -7.581100 -43.953570   0.016960 -84.327587   0.052151   2.450415  -8.921526   3.728609 -48.686689  -2.518624  -6.377659  57.097120   0.011134  -0.020231   0.001979  -8.406521   5.701704  -2.906061  -0.002575   0.001435  -0.097275  -5.164466   3.732866  35.634956   0.003547  -0.005785   7.825597  -4.060777   0.824008 -40.466018  -0.000068  -0.008185
 -2.221388   0.900088   5.866366   7.489800   8.883485   0.763203   4.822868  -4.435171   1.600257  -0.838967  -5.229046   2.094921  -7.877170  -0.541462  -1.108997  11.070615 -11.437098   6.251652  31.047315   2.302388  47.294146  -0.010416  23.414422  -0.004764   3.185531   1.899121   1.382112   3.040908   2.866553  -3.542401   2.600387  -8.000917 -43.921462   0.065923 -85.127244   0.098077   2.534935  -9.401462   3.913486 -48.483850  -2.531355  -6.555642  53.305571   0.014099  -0.014563  -0.471685  -8.428679   5.788030  -2.741241  -0.003247   0.001633   0.230422  -5.122306   3.648560  37.519080   0.002110  -0.001822   8.401531  -4.273305   0.738672 -36.785281   0.007683  -0.002879
 -2.221470   0.901050   5.887499   7.307830   8.901425   1.099985   4.658993  -4.620186   1.590582  -0.854080  -5.311297   2.064973  -7.710802  -0.490413  -1.225659  11.415755 -11.704292   6.445694  31.207962   1.828674  47.333179  -0.009346  23.222227  -0.004319   3.192855   1.560025   1.432346   3.196504   2.858131  -3.438326   2.872180  -8.363933 -43.911225   0.105578 -85.827467   0.133988   2.601810  -9.664794   3.899273 -48.101746  -2.511757  -6.777650  49.725267   0.016063  -0.007254  -0.914997  -8.449234   5.867546  -2.582794  -0.003659   0.001624   0.578458  -5.034365   3.465965  39.675579   0.001169   0.001213   8.937353  -4.472163   0.658828 -33.562120   0.014194   0.000141
